<svg width="3840" height="2392" viewBox="0 0 3840 2392" fill="none" xmlns="http://www.w3.org/2000/svg">
<g clip-path="url(#clip0_203_581)">
<rect width="3840" height="2392" fill="white"/>
<path d="M141.361 277.94L107.911 248.575C88.7475 215.071 48.3863 163.565 40.2476 225.57C32.1089 287.576 68.9091 346.268 88.3265 367.863" stroke="#261F29" stroke-opacity="0.07" stroke-width="30" stroke-linecap="round"/>
<path d="M344.654 82.8057C287.633 93.4063 177.038 121.482 134 222M344.654 82.8057L360.807 124.282M344.654 82.8057C319.725 53.3391 285.129 -2.20424 346.179 11.3549C407.228 24.9141 449.794 79.5688 463.446 105.201" stroke="#261F29" stroke-opacity="0.07" stroke-width="30" stroke-linecap="round"/>
<path d="M706.361 277.94L672.911 248.575C653.748 215.071 613.386 163.565 605.248 225.57C597.109 287.576 633.909 346.268 653.327 367.863" stroke="#261F29" stroke-opacity="0.07" stroke-width="30" stroke-linecap="round"/>
<path d="M909.654 82.8057C852.633 93.4063 742.038 121.482 699 222M909.654 82.8057L925.807 124.282M909.654 82.8057C884.725 53.3391 850.129 -2.20424 911.179 11.3549C972.228 24.9141 1014.79 79.5688 1028.45 105.201" stroke="#261F29" stroke-opacity="0.07" stroke-width="30" stroke-linecap="round"/>
<path d="M1271.36 277.94L1237.91 248.575C1218.75 215.071 1178.39 163.565 1170.25 225.57C1162.11 287.576 1198.91 346.268 1218.33 367.863" stroke="#261F29" stroke-opacity="0.07" stroke-width="30" stroke-linecap="round"/>
<path d="M1474.65 82.8057C1417.63 93.4063 1307.04 121.482 1264 222M1474.65 82.8057L1490.81 124.282M1474.65 82.8057C1449.72 53.3391 1415.13 -2.20424 1476.18 11.3549C1537.23 24.9141 1579.79 79.5688 1593.45 105.201" stroke="#261F29" stroke-opacity="0.07" stroke-width="30" stroke-linecap="round"/>
<path d="M1836.36 277.94L1802.91 248.575C1783.75 215.071 1743.39 163.565 1735.25 225.57C1727.11 287.576 1763.91 346.268 1783.33 367.863" stroke="#261F29" stroke-opacity="0.07" stroke-width="30" stroke-linecap="round"/>
<path d="M2039.65 82.8057C1982.63 93.4063 1872.04 121.482 1829 222M2039.65 82.8057L2055.81 124.282M2039.65 82.8057C2014.72 53.3391 1980.13 -2.20424 2041.18 11.3549C2102.23 24.9141 2144.79 79.5688 2158.45 105.201" stroke="#261F29" stroke-opacity="0.07" stroke-width="30" stroke-linecap="round"/>
<path d="M2401.36 277.94L2367.91 248.575C2348.75 215.071 2308.39 163.565 2300.25 225.57C2292.11 287.576 2328.91 346.268 2348.33 367.863" stroke="#261F29" stroke-opacity="0.07" stroke-width="30" stroke-linecap="round"/>
<path d="M2604.65 82.8057C2547.63 93.4063 2437.04 121.482 2394 222M2604.65 82.8057L2620.81 124.282M2604.65 82.8057C2579.72 53.3391 2545.13 -2.20424 2606.18 11.3549C2667.23 24.9141 2709.79 79.5688 2723.45 105.201" stroke="#261F29" stroke-opacity="0.07" stroke-width="30" stroke-linecap="round"/>
<path d="M2966.36 277.94L2932.91 248.575C2913.75 215.071 2873.39 163.565 2865.25 225.57C2857.11 287.576 2893.91 346.268 2913.33 367.863" stroke="#261F29" stroke-opacity="0.07" stroke-width="30" stroke-linecap="round"/>
<path d="M3169.65 82.8057C3112.63 93.4063 3002.04 121.482 2959 222M3169.65 82.8057L3185.81 124.282M3169.65 82.8057C3144.72 53.3391 3110.13 -2.20424 3171.18 11.3549C3232.23 24.9141 3274.79 79.5688 3288.45 105.201" stroke="#261F29" stroke-opacity="0.07" stroke-width="30" stroke-linecap="round"/>
<path d="M3531.36 277.94L3497.91 248.575C3478.75 215.071 3438.39 163.565 3430.25 225.57C3422.11 287.576 3458.91 346.268 3478.33 367.863" stroke="#261F29" stroke-opacity="0.07" stroke-width="30" stroke-linecap="round"/>
<path d="M3734.65 82.8057C3677.63 93.4063 3567.04 121.482 3524 222M3734.65 82.8057L3750.81 124.282M3734.65 82.8057C3709.72 53.3391 3675.13 -2.20424 3736.18 11.3549C3797.23 24.9141 3839.79 79.5688 3853.45 105.201" stroke="#261F29" stroke-opacity="0.07" stroke-width="30" stroke-linecap="round"/>
<path d="M141.361 647.94L107.911 618.575C88.7475 585.071 48.3863 533.565 40.2476 595.571C32.1089 657.576 68.9091 716.268 88.3265 737.863" stroke="#261F29" stroke-opacity="0.07" stroke-width="30" stroke-linecap="round"/>
<path d="M344.654 452.806C287.633 463.406 177.038 491.482 134 592M344.654 452.806L360.807 494.282M344.654 452.806C319.725 423.339 285.129 367.796 346.179 381.355C407.228 394.914 449.794 449.569 463.446 475.201" stroke="#261F29" stroke-opacity="0.07" stroke-width="30" stroke-linecap="round"/>
<path d="M706.361 647.94L672.911 618.575C653.748 585.071 613.386 533.565 605.248 595.571C597.109 657.576 633.909 716.268 653.327 737.863" stroke="#261F29" stroke-opacity="0.07" stroke-width="30" stroke-linecap="round"/>
<path d="M909.654 452.806C852.633 463.406 742.038 491.482 699 592M909.654 452.806L925.807 494.282M909.654 452.806C884.725 423.339 850.129 367.796 911.179 381.355C972.228 394.914 1014.79 449.569 1028.45 475.201" stroke="#261F29" stroke-opacity="0.07" stroke-width="30" stroke-linecap="round"/>
<path d="M1271.36 647.94L1237.91 618.575C1218.75 585.071 1178.39 533.565 1170.25 595.571C1162.11 657.576 1198.91 716.268 1218.33 737.863" stroke="#261F29" stroke-opacity="0.07" stroke-width="30" stroke-linecap="round"/>
<path d="M1474.65 452.806C1417.63 463.406 1307.04 491.482 1264 592M1474.65 452.806L1490.81 494.282M1474.65 452.806C1449.72 423.339 1415.13 367.796 1476.18 381.355C1537.23 394.914 1579.79 449.569 1593.45 475.201" stroke="#261F29" stroke-opacity="0.07" stroke-width="30" stroke-linecap="round"/>
<path d="M1836.36 647.94L1802.91 618.575C1783.75 585.071 1743.39 533.565 1735.25 595.571C1727.11 657.576 1763.91 716.268 1783.33 737.863" stroke="#261F29" stroke-opacity="0.07" stroke-width="30" stroke-linecap="round"/>
<path d="M2039.65 452.806C1982.63 463.406 1872.04 491.482 1829 592M2039.65 452.806L2055.81 494.282M2039.65 452.806C2014.72 423.339 1980.13 367.796 2041.18 381.355C2102.23 394.914 2144.79 449.569 2158.45 475.201" stroke="#261F29" stroke-opacity="0.07" stroke-width="30" stroke-linecap="round"/>
<path d="M2401.36 647.94L2367.91 618.575C2348.75 585.071 2308.39 533.565 2300.25 595.571C2292.11 657.576 2328.91 716.268 2348.33 737.863" stroke="#261F29" stroke-opacity="0.07" stroke-width="30" stroke-linecap="round"/>
<path d="M2604.65 452.806C2547.63 463.406 2437.04 491.482 2394 592M2604.65 452.806L2620.81 494.282M2604.65 452.806C2579.72 423.339 2545.13 367.796 2606.18 381.355C2667.23 394.914 2709.79 449.569 2723.45 475.201" stroke="#261F29" stroke-opacity="0.07" stroke-width="30" stroke-linecap="round"/>
<path d="M2966.36 647.94L2932.91 618.575C2913.75 585.071 2873.39 533.565 2865.25 595.571C2857.11 657.576 2893.91 716.268 2913.33 737.863" stroke="#261F29" stroke-opacity="0.07" stroke-width="30" stroke-linecap="round"/>
<path d="M3169.65 452.806C3112.63 463.406 3002.04 491.482 2959 592M3169.65 452.806L3185.81 494.282M3169.65 452.806C3144.72 423.339 3110.13 367.796 3171.18 381.355C3232.23 394.914 3274.79 449.569 3288.45 475.201" stroke="#261F29" stroke-opacity="0.07" stroke-width="30" stroke-linecap="round"/>
<path d="M3531.36 647.94L3497.91 618.575C3478.75 585.071 3438.39 533.565 3430.25 595.571C3422.11 657.576 3458.91 716.268 3478.33 737.863" stroke="#261F29" stroke-opacity="0.07" stroke-width="30" stroke-linecap="round"/>
<path d="M3734.65 452.806C3677.63 463.406 3567.04 491.482 3524 592M3734.65 452.806L3750.81 494.282M3734.65 452.806C3709.72 423.339 3675.13 367.796 3736.18 381.355C3797.23 394.914 3839.79 449.569 3853.45 475.201" stroke="#261F29" stroke-opacity="0.07" stroke-width="30" stroke-linecap="round"/>
<path d="M141.361 1017.94L107.911 988.575C88.7475 955.071 48.3863 903.565 40.2476 965.57C32.1089 1027.58 68.9091 1086.27 88.3265 1107.86" stroke="#261F29" stroke-opacity="0.07" stroke-width="30" stroke-linecap="round"/>
<path d="M344.654 822.806C287.633 833.406 177.038 861.482 134 962M344.654 822.806L360.807 864.282M344.654 822.806C319.725 793.339 285.129 737.796 346.179 751.355C407.228 764.914 449.794 819.569 463.446 845.201" stroke="#261F29" stroke-opacity="0.07" stroke-width="30" stroke-linecap="round"/>
<path d="M706.361 1017.94L672.911 988.575C653.748 955.071 613.386 903.565 605.248 965.57C597.109 1027.58 633.909 1086.27 653.327 1107.86" stroke="#261F29" stroke-opacity="0.07" stroke-width="30" stroke-linecap="round"/>
<path d="M909.654 822.806C852.633 833.406 742.038 861.482 699 962M909.654 822.806L925.807 864.282M909.654 822.806C884.725 793.339 850.129 737.796 911.179 751.355C972.228 764.914 1014.79 819.569 1028.45 845.201" stroke="#261F29" stroke-opacity="0.07" stroke-width="30" stroke-linecap="round"/>
<path d="M1271.36 1017.94L1237.91 988.575C1218.75 955.071 1178.39 903.565 1170.25 965.57C1162.11 1027.58 1198.91 1086.27 1218.33 1107.86" stroke="#261F29" stroke-opacity="0.07" stroke-width="30" stroke-linecap="round"/>
<path d="M1474.65 822.806C1417.63 833.406 1307.04 861.482 1264 962M1474.65 822.806L1490.81 864.282M1474.65 822.806C1449.72 793.339 1415.13 737.796 1476.18 751.355C1537.23 764.914 1579.79 819.569 1593.45 845.201" stroke="#261F29" stroke-opacity="0.07" stroke-width="30" stroke-linecap="round"/>
<path d="M1836.36 1017.94L1802.91 988.575C1783.75 955.071 1743.39 903.565 1735.25 965.57C1727.11 1027.58 1763.91 1086.27 1783.33 1107.86" stroke="#261F29" stroke-opacity="0.07" stroke-width="30" stroke-linecap="round"/>
<path d="M2039.65 822.806C1982.63 833.406 1872.04 861.482 1829 962M2039.65 822.806L2055.81 864.282M2039.65 822.806C2014.72 793.339 1980.13 737.796 2041.18 751.355C2102.23 764.914 2144.79 819.569 2158.45 845.201" stroke="#261F29" stroke-opacity="0.07" stroke-width="30" stroke-linecap="round"/>
<path d="M2401.36 1017.94L2367.91 988.575C2348.75 955.071 2308.39 903.565 2300.25 965.57C2292.11 1027.58 2328.91 1086.27 2348.33 1107.86" stroke="#261F29" stroke-opacity="0.07" stroke-width="30" stroke-linecap="round"/>
<path d="M2604.65 822.806C2547.63 833.406 2437.04 861.482 2394 962M2604.65 822.806L2620.81 864.282M2604.65 822.806C2579.72 793.339 2545.13 737.796 2606.18 751.355C2667.23 764.914 2709.79 819.569 2723.45 845.201" stroke="#261F29" stroke-opacity="0.07" stroke-width="30" stroke-linecap="round"/>
<path d="M2966.36 1017.94L2932.91 988.575C2913.75 955.071 2873.39 903.565 2865.25 965.57C2857.11 1027.58 2893.91 1086.27 2913.33 1107.86" stroke="#261F29" stroke-opacity="0.07" stroke-width="30" stroke-linecap="round"/>
<path d="M3169.65 822.806C3112.63 833.406 3002.04 861.482 2959 962M3169.65 822.806L3185.81 864.282M3169.65 822.806C3144.72 793.339 3110.13 737.796 3171.18 751.355C3232.23 764.914 3274.79 819.569 3288.45 845.201" stroke="#261F29" stroke-opacity="0.07" stroke-width="30" stroke-linecap="round"/>
<path d="M3531.36 1017.94L3497.91 988.575C3478.75 955.071 3438.39 903.565 3430.25 965.57C3422.11 1027.58 3458.91 1086.27 3478.33 1107.86" stroke="#261F29" stroke-opacity="0.07" stroke-width="30" stroke-linecap="round"/>
<path d="M3734.65 822.806C3677.63 833.406 3567.04 861.482 3524 962M3734.65 822.806L3750.81 864.282M3734.65 822.806C3709.72 793.339 3675.13 737.796 3736.18 751.355C3797.23 764.914 3839.79 819.569 3853.45 845.201" stroke="#261F29" stroke-opacity="0.07" stroke-width="30" stroke-linecap="round"/>
<path d="M141.361 1387.94L107.911 1358.58C88.7475 1325.07 48.3863 1273.57 40.2476 1335.57C32.1089 1397.58 68.9091 1456.27 88.3265 1477.86" stroke="#261F29" stroke-opacity="0.07" stroke-width="30" stroke-linecap="round"/>
<path d="M344.654 1192.81C287.633 1203.41 177.038 1231.48 134 1332M344.654 1192.81L360.807 1234.28M344.654 1192.81C319.725 1163.34 285.129 1107.8 346.179 1121.35C407.228 1134.91 449.794 1189.57 463.446 1215.2" stroke="#261F29" stroke-opacity="0.07" stroke-width="30" stroke-linecap="round"/>
<path d="M706.361 1387.94L672.911 1358.58C653.748 1325.07 613.386 1273.57 605.248 1335.57C597.109 1397.58 633.909 1456.27 653.327 1477.86" stroke="#261F29" stroke-opacity="0.07" stroke-width="30" stroke-linecap="round"/>
<path d="M909.654 1192.81C852.633 1203.41 742.038 1231.48 699 1332M909.654 1192.81L925.807 1234.28M909.654 1192.81C884.725 1163.34 850.129 1107.8 911.179 1121.35C972.228 1134.91 1014.79 1189.57 1028.45 1215.2" stroke="#261F29" stroke-opacity="0.07" stroke-width="30" stroke-linecap="round"/>
<path d="M1271.36 1387.94L1237.91 1358.58C1218.75 1325.07 1178.39 1273.57 1170.25 1335.57C1162.11 1397.58 1198.91 1456.27 1218.33 1477.86" stroke="#261F29" stroke-opacity="0.07" stroke-width="30" stroke-linecap="round"/>
<path d="M1474.65 1192.81C1417.63 1203.41 1307.04 1231.48 1264 1332M1474.65 1192.81L1490.81 1234.28M1474.65 1192.81C1449.72 1163.34 1415.13 1107.8 1476.18 1121.35C1537.23 1134.91 1579.79 1189.57 1593.45 1215.2" stroke="#261F29" stroke-opacity="0.07" stroke-width="30" stroke-linecap="round"/>
<path d="M1836.36 1387.94L1802.91 1358.58C1783.75 1325.07 1743.39 1273.57 1735.25 1335.57C1727.11 1397.58 1763.91 1456.27 1783.33 1477.86" stroke="#261F29" stroke-opacity="0.07" stroke-width="30" stroke-linecap="round"/>
<path d="M2039.65 1192.81C1982.63 1203.41 1872.04 1231.48 1829 1332M2039.65 1192.81L2055.81 1234.28M2039.65 1192.81C2014.72 1163.34 1980.13 1107.8 2041.18 1121.35C2102.23 1134.91 2144.79 1189.57 2158.45 1215.2" stroke="#261F29" stroke-opacity="0.07" stroke-width="30" stroke-linecap="round"/>
<path d="M2401.36 1387.94L2367.91 1358.58C2348.75 1325.07 2308.39 1273.57 2300.25 1335.57C2292.11 1397.58 2328.91 1456.27 2348.33 1477.86" stroke="#261F29" stroke-opacity="0.07" stroke-width="30" stroke-linecap="round"/>
<path d="M2604.65 1192.81C2547.63 1203.41 2437.04 1231.48 2394 1332M2604.65 1192.81L2620.81 1234.28M2604.65 1192.81C2579.72 1163.34 2545.13 1107.8 2606.18 1121.35C2667.23 1134.91 2709.79 1189.57 2723.45 1215.2" stroke="#261F29" stroke-opacity="0.07" stroke-width="30" stroke-linecap="round"/>
<path d="M2966.36 1387.94L2932.91 1358.58C2913.75 1325.07 2873.39 1273.57 2865.25 1335.57C2857.11 1397.58 2893.91 1456.27 2913.33 1477.86" stroke="#261F29" stroke-opacity="0.07" stroke-width="30" stroke-linecap="round"/>
<path d="M3169.65 1192.81C3112.63 1203.41 3002.04 1231.48 2959 1332M3169.65 1192.81L3185.81 1234.28M3169.65 1192.81C3144.72 1163.34 3110.13 1107.8 3171.18 1121.35C3232.23 1134.91 3274.79 1189.57 3288.45 1215.2" stroke="#261F29" stroke-opacity="0.07" stroke-width="30" stroke-linecap="round"/>
<path d="M3531.36 1387.94L3497.91 1358.58C3478.75 1325.07 3438.39 1273.57 3430.25 1335.57C3422.11 1397.58 3458.91 1456.27 3478.33 1477.86" stroke="#261F29" stroke-opacity="0.07" stroke-width="30" stroke-linecap="round"/>
<path d="M3734.65 1192.81C3677.63 1203.41 3567.04 1231.48 3524 1332M3734.65 1192.81L3750.81 1234.28M3734.65 1192.81C3709.72 1163.34 3675.13 1107.8 3736.18 1121.35C3797.23 1134.91 3839.79 1189.57 3853.45 1215.2" stroke="#261F29" stroke-opacity="0.07" stroke-width="30" stroke-linecap="round"/>
<path d="M141.361 1757.94L107.911 1728.58C88.7475 1695.07 48.3863 1643.57 40.2476 1705.57C32.1089 1767.58 68.9091 1826.27 88.3265 1847.86" stroke="#261F29" stroke-opacity="0.07" stroke-width="30" stroke-linecap="round"/>
<path d="M344.654 1562.81C287.633 1573.41 177.038 1601.48 134 1702M344.654 1562.81L360.807 1604.28M344.654 1562.81C319.725 1533.34 285.129 1477.8 346.179 1491.35C407.228 1504.91 449.794 1559.57 463.446 1585.2" stroke="#261F29" stroke-opacity="0.07" stroke-width="30" stroke-linecap="round"/>
<path d="M706.361 1757.94L672.911 1728.58C653.748 1695.07 613.386 1643.57 605.248 1705.57C597.109 1767.58 633.909 1826.27 653.327 1847.86" stroke="#261F29" stroke-opacity="0.07" stroke-width="30" stroke-linecap="round"/>
<path d="M909.654 1562.81C852.633 1573.41 742.038 1601.48 699 1702M909.654 1562.81L925.807 1604.28M909.654 1562.81C884.725 1533.34 850.129 1477.8 911.179 1491.35C972.228 1504.91 1014.79 1559.57 1028.45 1585.2" stroke="#261F29" stroke-opacity="0.07" stroke-width="30" stroke-linecap="round"/>
<path d="M1271.36 1757.94L1237.91 1728.58C1218.75 1695.07 1178.39 1643.57 1170.25 1705.57C1162.11 1767.58 1198.91 1826.27 1218.33 1847.86" stroke="#261F29" stroke-opacity="0.07" stroke-width="30" stroke-linecap="round"/>
<path d="M1474.65 1562.81C1417.63 1573.41 1307.04 1601.48 1264 1702M1474.65 1562.81L1490.81 1604.28M1474.65 1562.81C1449.72 1533.34 1415.13 1477.8 1476.18 1491.35C1537.23 1504.91 1579.79 1559.57 1593.45 1585.2" stroke="#261F29" stroke-opacity="0.07" stroke-width="30" stroke-linecap="round"/>
<path d="M1836.36 1757.94L1802.91 1728.58C1783.75 1695.07 1743.39 1643.57 1735.25 1705.57C1727.11 1767.58 1763.91 1826.27 1783.33 1847.86" stroke="#261F29" stroke-opacity="0.07" stroke-width="30" stroke-linecap="round"/>
<path d="M2039.65 1562.81C1982.63 1573.41 1872.04 1601.48 1829 1702M2039.65 1562.81L2055.81 1604.28M2039.65 1562.81C2014.72 1533.34 1980.13 1477.8 2041.18 1491.35C2102.23 1504.91 2144.79 1559.57 2158.45 1585.2" stroke="#261F29" stroke-opacity="0.07" stroke-width="30" stroke-linecap="round"/>
<path d="M2401.36 1757.94L2367.91 1728.58C2348.75 1695.07 2308.39 1643.57 2300.25 1705.57C2292.11 1767.58 2328.91 1826.27 2348.33 1847.86" stroke="#261F29" stroke-opacity="0.07" stroke-width="30" stroke-linecap="round"/>
<path d="M2604.65 1562.81C2547.63 1573.41 2437.04 1601.48 2394 1702M2604.65 1562.81L2620.81 1604.28M2604.65 1562.81C2579.72 1533.34 2545.13 1477.8 2606.18 1491.35C2667.23 1504.91 2709.79 1559.57 2723.45 1585.2" stroke="#261F29" stroke-opacity="0.07" stroke-width="30" stroke-linecap="round"/>
<path d="M2966.36 1757.94L2932.91 1728.58C2913.75 1695.07 2873.39 1643.57 2865.25 1705.57C2857.11 1767.58 2893.91 1826.27 2913.33 1847.86" stroke="#261F29" stroke-opacity="0.07" stroke-width="30" stroke-linecap="round"/>
<path d="M3169.65 1562.81C3112.63 1573.41 3002.04 1601.48 2959 1702M3169.65 1562.81L3185.81 1604.28M3169.65 1562.81C3144.72 1533.34 3110.13 1477.8 3171.18 1491.35C3232.23 1504.91 3274.79 1559.57 3288.45 1585.2" stroke="#261F29" stroke-opacity="0.07" stroke-width="30" stroke-linecap="round"/>
<path d="M3531.36 1757.94L3497.91 1728.58C3478.75 1695.07 3438.39 1643.57 3430.25 1705.57C3422.11 1767.58 3458.91 1826.27 3478.33 1847.86" stroke="#261F29" stroke-opacity="0.07" stroke-width="30" stroke-linecap="round"/>
<path d="M3734.65 1562.81C3677.63 1573.41 3567.04 1601.48 3524 1702M3734.65 1562.81L3750.81 1604.28M3734.65 1562.81C3709.72 1533.34 3675.13 1477.8 3736.18 1491.35C3797.23 1504.91 3839.79 1559.57 3853.45 1585.2" stroke="#261F29" stroke-opacity="0.07" stroke-width="30" stroke-linecap="round"/>
<path d="M141.361 2127.94L107.911 2098.58C88.7475 2065.07 48.3863 2013.57 40.2476 2075.57C32.1089 2137.58 68.9091 2196.27 88.3265 2217.86" stroke="#261F29" stroke-opacity="0.07" stroke-width="30" stroke-linecap="round"/>
<path d="M344.654 1932.81C287.633 1943.41 177.038 1971.48 134 2072M344.654 1932.81L360.807 1974.28M344.654 1932.81C319.725 1903.34 285.129 1847.8 346.179 1861.35C407.228 1874.91 449.794 1929.57 463.446 1955.2" stroke="#261F29" stroke-opacity="0.07" stroke-width="30" stroke-linecap="round"/>
<path d="M706.361 2127.94L672.911 2098.58C653.748 2065.07 613.386 2013.57 605.248 2075.57C597.109 2137.58 633.909 2196.27 653.327 2217.86" stroke="#261F29" stroke-opacity="0.07" stroke-width="30" stroke-linecap="round"/>
<path d="M909.654 1932.81C852.633 1943.41 742.038 1971.48 699 2072M909.654 1932.81L925.807 1974.28M909.654 1932.81C884.725 1903.34 850.129 1847.8 911.179 1861.35C972.228 1874.91 1014.79 1929.57 1028.45 1955.2" stroke="#261F29" stroke-opacity="0.07" stroke-width="30" stroke-linecap="round"/>
<path d="M1271.36 2127.94L1237.91 2098.58C1218.75 2065.07 1178.39 2013.57 1170.25 2075.57C1162.11 2137.58 1198.91 2196.27 1218.33 2217.86" stroke="#261F29" stroke-opacity="0.07" stroke-width="30" stroke-linecap="round"/>
<path d="M1474.65 1932.81C1417.63 1943.41 1307.04 1971.48 1264 2072M1474.65 1932.81L1490.81 1974.28M1474.65 1932.81C1449.72 1903.34 1415.13 1847.8 1476.18 1861.35C1537.23 1874.91 1579.79 1929.57 1593.45 1955.2" stroke="#261F29" stroke-opacity="0.07" stroke-width="30" stroke-linecap="round"/>
<path d="M1836.36 2127.94L1802.91 2098.58C1783.75 2065.07 1743.39 2013.57 1735.25 2075.57C1727.11 2137.58 1763.91 2196.27 1783.33 2217.86" stroke="#261F29" stroke-opacity="0.07" stroke-width="30" stroke-linecap="round"/>
<path d="M2039.65 1932.81C1982.63 1943.41 1872.04 1971.48 1829 2072M2039.65 1932.81L2055.81 1974.28M2039.65 1932.81C2014.72 1903.34 1980.13 1847.8 2041.18 1861.35C2102.23 1874.91 2144.79 1929.57 2158.45 1955.2" stroke="#261F29" stroke-opacity="0.07" stroke-width="30" stroke-linecap="round"/>
<path d="M2401.36 2127.94L2367.91 2098.58C2348.75 2065.07 2308.39 2013.57 2300.25 2075.57C2292.11 2137.58 2328.91 2196.27 2348.33 2217.86" stroke="#261F29" stroke-opacity="0.07" stroke-width="30" stroke-linecap="round"/>
<path d="M2604.65 1932.81C2547.63 1943.41 2437.04 1971.48 2394 2072M2604.65 1932.81L2620.81 1974.28M2604.65 1932.81C2579.72 1903.34 2545.13 1847.8 2606.18 1861.35C2667.23 1874.91 2709.79 1929.57 2723.45 1955.2" stroke="#261F29" stroke-opacity="0.07" stroke-width="30" stroke-linecap="round"/>
<path d="M2966.36 2127.94L2932.91 2098.58C2913.75 2065.07 2873.39 2013.57 2865.25 2075.57C2857.11 2137.58 2893.91 2196.27 2913.33 2217.86" stroke="#261F29" stroke-opacity="0.07" stroke-width="30" stroke-linecap="round"/>
<path d="M3169.65 1932.81C3112.63 1943.41 3002.04 1971.48 2959 2072M3169.65 1932.81L3185.81 1974.28M3169.65 1932.81C3144.72 1903.34 3110.13 1847.8 3171.18 1861.35C3232.23 1874.91 3274.79 1929.57 3288.45 1955.2" stroke="#261F29" stroke-opacity="0.07" stroke-width="30" stroke-linecap="round"/>
<path d="M3531.36 2127.94L3497.91 2098.58C3478.75 2065.07 3438.39 2013.57 3430.25 2075.57C3422.11 2137.58 3458.91 2196.27 3478.33 2217.86" stroke="#261F29" stroke-opacity="0.07" stroke-width="30" stroke-linecap="round"/>
<path d="M3734.65 1932.81C3677.63 1943.41 3567.04 1971.48 3524 2072M3734.65 1932.81L3750.81 1974.28M3734.65 1932.81C3709.72 1903.34 3675.13 1847.8 3736.18 1861.35C3797.23 1874.91 3839.79 1929.57 3853.45 1955.2" stroke="#261F29" stroke-opacity="0.07" stroke-width="30" stroke-linecap="round"/>
</g>
<defs>
<clipPath id="clip0_203_581">
<rect width="3840" height="2392" fill="white"/>
</clipPath>
</defs>
</svg>
