<svg width="112" height="137" viewBox="0 0 112 137" fill="none" xmlns="http://www.w3.org/2000/svg">
<path d="M11 2H68L110 45V47V126C110 128.5 104 135 101 135H11C9 135 2 129.5 2 126V11C2 8.6 7.5 2 11 2Z" fill="#FF0000" fill-opacity="0.8"/>
<path d="M68 2H11C7.5 2 2 8.6 2 11C2 13.4 2 88.6667 2 126C2 129.5 9 135 11 135H101C104 135 110 128.5 110 126V47M68 2L110 45V47M68 2V36C68 39.5 77 47 79 47C81 47 100.5 47 110 47" stroke="black" stroke-width="3"/>
<path d="M69.5 36V5.5L108.5 45.5H79C77.4 45.5 69.5 37.5 69.5 36Z" fill="white" fill-opacity="0.3" stroke="black"/>
<path d="M48.4992 79.9996C50.4988 75 55.5992 63.9996 55.9992 57.9996C55.9992 55.4996 55.2992 50.5996 52.4992 50.9996C49.6992 51.3996 48.6659 55.833 48.4992 57.9996C48.1338 62.7508 52.9992 73.5993 60.9992 79.9996C68.9992 86.3999 74.9992 84 76.9992 82C78.5967 80.4025 77.5992 77 71.9992 77C66.3992 77 57.9988 81 52.9988 82.5C48.377 83.8866 37.9992 87 33.9992 91C31.7104 93.2886 33.4989 98.0715 38.999 96.5C40.4989 96.0715 43.2997 93 48.4992 79.9996Z" stroke="white" stroke-width="2.5"/>
</svg>
