<svg width="112" height="137" viewBox="0 0 112 137" fill="none" xmlns="http://www.w3.org/2000/svg">
<path d="M11 2H68L110 45V47V126C110 128.5 104 135 101 135H11C9 135 2 129.5 2 126V11C2 8.6 7.5 2 11 2Z" fill="#FFA500"/>
<path d="M68 2H11C7.5 2 2 8.6 2 11C2 13.4 2 88.6667 2 126C2 129.5 9 135 11 135H101C104 135 110 128.5 110 126V47M68 2L110 45V47M68 2V36C68 39.5 77 47 79 47C81 47 100.5 47 110 47" stroke="black" stroke-width="3"/>
<path d="M69.5 36V5.5L108.5 45.5H79C77.4 45.5 69.5 37.5 69.5 36Z" fill="white" fill-opacity="0.3" stroke="black"/>
<path d="M24 59V102.5H74.5V59H24Z" stroke="white" stroke-opacity="0.8" stroke-width="3"/>
<circle cx="61" cy="70" r="5" fill="#D9D9D9"/>
</svg>
