<svg width="112" height="137" viewBox="0 0 112 137" fill="none" xmlns="http://www.w3.org/2000/svg">
<path d="M11 2H68L110 45V47V126C110 128.5 104 135 101 135H11C9 135 2 129.5 2 126V11C2 8.6 7.5 2 11 2Z" fill="#008052" fill-opacity="0.8"/>
<path d="M68 2H11C7.5 2 2 8.6 2 11C2 13.4 2 88.6667 2 126C2 129.5 9 135 11 135H101C104 135 110 128.5 110 126V47M68 2L110 45V47M68 2V36C68 39.5 77 47 79 47C81 47 100.5 47 110 47" stroke="black" stroke-width="3"/>
<path d="M69.5 36V5.5L108.5 45.5H79C77.4 45.5 69.5 37.5 69.5 36Z" fill="white" fill-opacity="0.3" stroke="black"/>
<path d="M53.5 103.5V110.5L18.5 103.5V57.5L53.5 50.5V57.5M53.5 103.5H78.5C79.1667 103.5 80.5 103.1 80.5 101.5C80.5 99.9 80.5 72.8333 80.5 59.5C80.5 58.8333 80.1 57.5 78.5 57.5C76.9 57.5 61.1667 57.5 53.5 57.5M53.5 103.5V98M53.5 57.5V62.5M53.5 62.5H62.5V67.5H53.5M53.5 62.5V67.5M53.5 67.5V70.5M53.5 70.5H62.5V75.5H53.5M53.5 70.5V75.5M53.5 75.5V78.5M53.5 78.5H62.5V83.5H53.5M53.5 78.5V83.5M53.5 83.5V86M53.5 86H62.5V90.5H53.5M53.5 86V90.5M53.5 90.5V93.5M53.5 93.5H62.5V98H53.5M53.5 93.5V98M65.5 62.5V67.5H74.5V62.5H65.5ZM65.5 70.5V75.5H74.5V70.5H65.5ZM65.5 78.5V83.5H74.5V78.5H65.5ZM65.5 86V90.5H74.5V86H65.5ZM65.5 93.5V98H74.5V93.5H65.5Z" stroke="white" stroke-width="2"/>
<path d="M31.5 70L27 70.5L32 80L26.5 89.5L31 90L34.5 82.5L37.5 90.5L43 91L37 80L42.5 69.5H38L34.5 77.5L31.5 70Z" stroke="white" stroke-width="2"/>
</svg>
